<svg xmlns="http://www.w3.org/2000/svg" width="16.320" height="12.885" viewBox="0 0 16.320 12.885" fill="none">
  <path d="M 7.917 10.128 C 8.094 10.128 8.242 10.068 8.362 9.948 C 8.482 9.829 8.542 9.68 8.542 9.503 C 8.542 9.326 8.482 9.177 8.362 9.058 C 8.242 8.938 8.094 8.878 7.916 8.878 C 7.739 8.878 7.591 8.938 7.471 9.058 C 7.351 9.178 7.292 9.326 7.292 9.503 C 7.292 9.681 7.352 9.829 7.471 9.949 C 7.591 10.068 7.74 10.128 7.917 10.128 L 7.917 10.128 M 7.917 6.875 C 8.094 6.875 8.242 6.815 8.362 6.695 C 8.482 6.575 8.542 6.427 8.542 6.25 C 8.542 6.073 8.482 5.924 8.362 5.804 C 8.242 5.685 8.094 5.625 7.916 5.625 C 7.739 5.625 7.591 5.685 7.471 5.805 C 7.351 5.925 7.292 6.073 7.292 6.25 C 7.292 6.427 7.352 6.576 7.471 6.695 C 7.591 6.815 7.74 6.875 7.917 6.875 L 7.917 6.875 M 7.917 3.622 C 8.094 3.622 8.242 3.562 8.362 3.442 C 8.482 3.322 8.542 3.174 8.542 2.996 C 8.542 2.819 8.482 2.671 8.362 2.551 C 8.242 2.432 8.094 2.372 7.916 2.372 C 7.739 2.372 7.591 2.432 7.471 2.552 C 7.351 2.671 7.292 2.82 7.292 2.997 C 7.292 3.174 7.352 3.323 7.471 3.442 C 7.591 3.562 7.74 3.622 7.917 3.622 L 7.917 3.622 M 14.327 12.5 L 1.506 12.5 C 1.092 12.5 0.738 12.352 0.443 12.057 C 0.148 11.762 0 11.408 0 10.994 L 0 8.253 C 0.474 8.162 0.871 7.93 1.189 7.555 C 1.507 7.181 1.667 6.746 1.667 6.25 C 1.667 5.754 1.507 5.319 1.189 4.945 C 0.871 4.57 0.474 4.338 0 4.247 L 0 1.506 C 0 1.092 0.148 0.738 0.443 0.443 C 0.738 0.148 1.092 0 1.506 0 L 14.327 0 C 14.741 0 15.096 0.148 15.391 0.443 C 15.686 0.738 15.833 1.092 15.833 1.506 L 15.833 4.247 C 15.359 4.338 14.963 4.57 14.644 4.945 C 14.326 5.319 14.167 5.754 14.167 6.25 C 14.167 6.746 14.326 7.181 14.644 7.555 C 14.963 7.93 15.359 8.162 15.833 8.253 L 15.833 10.994 C 15.833 11.408 15.686 11.762 15.391 12.057 C 15.096 12.352 14.741 12.5 14.327 12.5 L 14.327 12.5 M 14.327 11.25 C 14.402 11.25 14.463 11.226 14.511 11.178 C 14.559 11.13 14.583 11.068 14.583 10.994 L 14.583 9.125 C 14.069 8.819 13.663 8.413 13.365 7.906 C 13.066 7.399 12.917 6.847 12.917 6.25 C 12.917 5.653 13.066 5.101 13.365 4.594 C 13.663 4.087 14.069 3.681 14.583 3.375 L 14.583 1.506 C 14.583 1.432 14.559 1.37 14.511 1.322 C 14.463 1.274 14.402 1.25 14.327 1.25 L 1.506 1.25 C 1.432 1.25 1.37 1.274 1.322 1.322 C 1.274 1.37 1.25 1.432 1.25 1.506 L 1.25 3.375 C 1.764 3.681 2.17 4.087 2.469 4.594 C 2.767 5.101 2.917 5.653 2.917 6.25 C 2.917 6.847 2.767 7.399 2.469 7.906 C 2.17 8.413 1.764 8.819 1.25 9.125 L 1.25 10.994 C 1.25 11.068 1.274 11.13 1.322 11.178 C 1.37 11.226 1.432 11.25 1.506 11.25 L 14.327 11.25 L 14.327 11.25 M 7.917 6.25 L 7.917 6.25 L 7.917 6.25 L 7.917 6.25 L 7.917 6.25 L 7.917 6.25 L 7.917 6.25 L 7.917 6.25 L 7.917 6.25 L 7.917 6.25 L 7.917 6.25 L 7.917 6.25 L 7.917 6.25 L 7.917 6.25 L 7.917 6.25 L 7.917 6.25 L 7.917 6.25 L 7.917 6.25 L 7.917 6.25 L 7.917 6.25 L 7.917 6.25 L 7.917 6.25 L 7.917 6.25 L 7.917 6.25" fill="currentColor" fill-rule="nonzero"/>
</svg>
